<mxfile host="Electron" agent="Mozilla/5.0 (Windows NT 10.0; Win64; x64) AppleWebKit/537.36 (KHTML, like Gecko) draw.io/25.0.2 Chrome/128.0.6613.186 Electron/32.2.5 Safari/537.36" version="25.0.2">
  <diagram name="Seite-1" id="hPg8SPZopmh8AGZJrN-p">
    <mxGraphModel dx="988" dy="1315" grid="1" gridSize="10" guides="1" tooltips="1" connect="1" arrows="1" fold="1" page="1" pageScale="1" pageWidth="827" pageHeight="1169" math="0" shadow="0">
      <root>
        <mxCell id="0" />
        <mxCell id="1" parent="0" />
        <mxCell id="DEjZVQlh6ZJTVWUGv1k4-114" style="edgeStyle=orthogonalEdgeStyle;rounded=0;orthogonalLoop=1;jettySize=auto;html=1;" edge="1" parent="1" source="DEjZVQlh6ZJTVWUGv1k4-115" target="DEjZVQlh6ZJTVWUGv1k4-117">
          <mxGeometry relative="1" as="geometry" />
        </mxCell>
        <mxCell id="DEjZVQlh6ZJTVWUGv1k4-115" value="&lt;b&gt;ADI_CopyCommandBytes()&lt;br&gt;&lt;/b&gt;Copy command bytes to temporary variable" style="rounded=0;whiteSpace=wrap;html=1;fillColor=#c6e5ed;strokeColor=none;" vertex="1" parent="1">
          <mxGeometry x="40" y="40" width="320" height="60" as="geometry" />
        </mxCell>
        <mxCell id="DEjZVQlh6ZJTVWUGv1k4-116" style="edgeStyle=orthogonalEdgeStyle;rounded=0;orthogonalLoop=1;jettySize=auto;html=1;entryX=0.5;entryY=0;entryDx=0;entryDy=0;" edge="1" parent="1" source="DEjZVQlh6ZJTVWUGv1k4-117" target="DEjZVQlh6ZJTVWUGv1k4-118">
          <mxGeometry relative="1" as="geometry" />
        </mxCell>
        <mxCell id="DEjZVQlh6ZJTVWUGv1k4-117" value="&lt;b&gt;ADI_WriteCommandConfigurationBits()&lt;br&gt;&lt;/b&gt;If necessary, modify command configuration bits &lt;br&gt;(e.g., channels for measurement) &lt;br&gt;of command byte in temporary variable" style="rounded=0;whiteSpace=wrap;html=1;fillColor=#c6e5ed;strokeColor=none;" vertex="1" parent="1">
          <mxGeometry x="40" y="140" width="320" height="60" as="geometry" />
        </mxCell>
        <mxCell id="DEjZVQlh6ZJTVWUGv1k4-118" value="&lt;b&gt;ADI_TransmitCommand()&lt;/b&gt;" style="rounded=0;whiteSpace=wrap;html=1;fillColor=#c6e5ed;strokeColor=none;" vertex="1" parent="1">
          <mxGeometry x="40" y="240" width="320" height="60" as="geometry" />
        </mxCell>
      </root>
    </mxGraphModel>
  </diagram>
</mxfile>
